M48
METRIC,LZ,000.000
;FILE_FORMAT=3:3
;TYPE=PLATED
;Layer: PTH_Through
;EasyEDA v6.5.1, 2022-03-27 12:15:46
;81ae687aecaa4b249005c4e09973505a,10
;Gerber Generator version 0.2
;Holesize 1 = 0.701 mm
T01C0.701
;Holesize 2 = 0.889 mm
T02C0.889
;Holesize 3 = 0.900 mm
T03C0.900
;Holesize 4 = 0.915 mm
T04C0.915
;Holesize 5 = 0.966 mm
T05C0.966
;Holesize 6 = 1.000 mm
T06C1.000
%
G05
G90
T01
X041275Y035052
X050419Y035052
X039878Y032512
X050673Y039751
T02
X062611Y038354
X062611Y035814
X062611Y033274
X029591Y044958
X029591Y042418
X029591Y039878
X024892Y044958
X024892Y042418
X024892Y039878
X034036Y008636
X034036Y011176
X034036Y013716
X034036Y016256
X034036Y018796
X034036Y021336
X034036Y023876
X034036Y026416
X034036Y028956
X034036Y031496
X058674Y034798
X058674Y032258
X058674Y029718
X058674Y027178
X058674Y024638
X058674Y022098
X058674Y019558
X058674Y017018
X058674Y014478
X058674Y011938
T03
X045466Y049403
X037846Y049403
X021844Y042672
X021844Y035052
T04
X037846Y040132
X037846Y037592
X037846Y035052
X037846Y032512
X037846Y029972
X037846Y027432
X037846Y024892
X037846Y022352
X037846Y019812
X037846Y017272
X037846Y014732
X037846Y012192
X037846Y009652
X037846Y007112
X037846Y004572
X053086Y004572
X053086Y007112
X053086Y009652
X053086Y012192
X053086Y014732
X053086Y017272
X053086Y019812
X053086Y022352
X053086Y024892
X053086Y027432
X053086Y029972
X053086Y032512
X053086Y035052
X053086Y037592
X053086Y040132
T05
X023749Y049276
X021209Y049276
T06
X021371Y029265G85X022571Y029265
X021371Y024765G85X022571Y024765
X021371Y020265G85X022571Y020265
M30
