G04 Layer: TopSilkscreenLayer*
G04 EasyEDA v6.5.1, 2022-03-27 12:15:46*
G04 81ae687aecaa4b249005c4e09973505a,10*
G04 Gerber Generator version 0.2*
G04 Scale: 100 percent, Rotated: No, Reflected: No *
G04 Dimensions in millimeters *
G04 leading zeros omitted , absolute positions ,4 integer and 5 decimal *
%FSLAX45Y45*%
%MOMM*%

%ADD10C,0.2540*%
%ADD20C,0.2032*%
%ADD21C,0.2030*%
%ADD22C,0.1524*%

%LPD*%
D22*
X4573270Y4560315D02*
G01*
X4573270Y4477257D01*
X4567936Y4461510D01*
X4562856Y4456429D01*
X4552441Y4451350D01*
X4542027Y4451350D01*
X4531613Y4456429D01*
X4526279Y4461510D01*
X4521200Y4477257D01*
X4521200Y4487671D01*
X4607559Y4539487D02*
G01*
X4617720Y4544821D01*
X4633468Y4560315D01*
X4633468Y4451350D01*
X5993384Y3608070D02*
G01*
X6076441Y3608070D01*
X6092190Y3602736D01*
X6097270Y3597655D01*
X6102350Y3587242D01*
X6102350Y3576828D01*
X6097270Y3566413D01*
X6092190Y3561079D01*
X6076441Y3556000D01*
X6066027Y3556000D01*
X5993384Y3652520D02*
G01*
X5993384Y3709670D01*
X6035040Y3678681D01*
X6035040Y3694176D01*
X6040120Y3704589D01*
X6045200Y3709670D01*
X6060947Y3715004D01*
X6071361Y3715004D01*
X6086856Y3709670D01*
X6097270Y3699510D01*
X6102350Y3683762D01*
X6102350Y3668268D01*
X6097270Y3652520D01*
X6092190Y3647439D01*
X6081775Y3642360D01*
X2626918Y4953000D02*
G01*
X2517952Y4953000D01*
X2517952Y4953000D02*
G01*
X2517952Y4890770D01*
X2626918Y4856479D02*
G01*
X2517952Y4856479D01*
X2626918Y4856479D02*
G01*
X2626918Y4788915D01*
X2575102Y4856479D02*
G01*
X2575102Y4814823D01*
X2517952Y4856479D02*
G01*
X2517952Y4788915D01*
X2626918Y4754626D02*
G01*
X2517952Y4754626D01*
X2626918Y4754626D02*
G01*
X2626918Y4718050D01*
X2621838Y4702555D01*
X2611424Y4692142D01*
X2601010Y4687062D01*
X2585262Y4681728D01*
X2559354Y4681728D01*
X2543860Y4687062D01*
X2533446Y4692142D01*
X2523032Y4702555D01*
X2517952Y4718050D01*
X2517952Y4754626D01*
X2606090Y4647437D02*
G01*
X2611424Y4637023D01*
X2626918Y4621529D01*
X2517952Y4621529D01*
X4165600Y4697984D02*
G01*
X4165600Y4806950D01*
X4165600Y4697984D02*
G01*
X4118863Y4697984D01*
X4103370Y4703063D01*
X4098036Y4708397D01*
X4092956Y4718812D01*
X4092956Y4729226D01*
X4098036Y4739639D01*
X4103370Y4744720D01*
X4118863Y4749800D01*
X4165600Y4749800D01*
X4129277Y4749800D02*
G01*
X4092956Y4806950D01*
X4058665Y4718812D02*
G01*
X4048252Y4713478D01*
X4032504Y4697984D01*
X4032504Y4806950D01*
X2426715Y3886200D02*
G01*
X2317750Y3886200D01*
X2426715Y3886200D02*
G01*
X2426715Y3839463D01*
X2421636Y3823970D01*
X2416302Y3818636D01*
X2405888Y3813555D01*
X2395474Y3813555D01*
X2385059Y3818636D01*
X2379979Y3823970D01*
X2374900Y3839463D01*
X2374900Y3886200D01*
X2374900Y3849878D02*
G01*
X2317750Y3813555D01*
X2400808Y3773931D02*
G01*
X2405888Y3773931D01*
X2416302Y3768852D01*
X2421636Y3763518D01*
X2426715Y3753104D01*
X2426715Y3732529D01*
X2421636Y3722115D01*
X2416302Y3716781D01*
X2405888Y3711702D01*
X2395474Y3711702D01*
X2385059Y3716781D01*
X2369565Y3727195D01*
X2317750Y3779265D01*
X2317750Y3706368D01*
X2744215Y2425700D02*
G01*
X2666238Y2425700D01*
X2650743Y2420620D01*
X2640329Y2410205D01*
X2635250Y2394457D01*
X2635250Y2384044D01*
X2640329Y2368550D01*
X2650743Y2358136D01*
X2666238Y2353055D01*
X2744215Y2353055D01*
X2723388Y2318765D02*
G01*
X2728722Y2308352D01*
X2744215Y2292604D01*
X2635250Y2292604D01*
D20*
X2324097Y3487928D02*
G01*
X2314953Y3506470D01*
X2296411Y3524757D01*
X2278123Y3534155D01*
X2250183Y3543300D01*
X2204209Y3543300D01*
X2176523Y3534155D01*
X2157981Y3524757D01*
X2139439Y3506470D01*
X2130295Y3487928D01*
X2130295Y3450844D01*
X2139439Y3432555D01*
X2157981Y3414013D01*
X2176523Y3404870D01*
X2204209Y3395471D01*
X2250183Y3395471D01*
X2278123Y3404870D01*
X2296411Y3414013D01*
X2314953Y3432555D01*
X2324097Y3450844D01*
X2324097Y3487928D01*
X2259581Y3334512D02*
G01*
X2130295Y3334512D01*
X2222497Y3334512D02*
G01*
X2250183Y3306826D01*
X2259581Y3288284D01*
X2259581Y3260597D01*
X2250183Y3242310D01*
X2222497Y3232912D01*
X2130295Y3232912D01*
X2325624Y1608328D02*
G01*
X2316479Y1626870D01*
X2297938Y1645157D01*
X2279650Y1654555D01*
X2251709Y1663700D01*
X2205736Y1663700D01*
X2178050Y1654555D01*
X2159508Y1645157D01*
X2140965Y1626870D01*
X2131822Y1608328D01*
X2131822Y1571244D01*
X2140965Y1552955D01*
X2159508Y1534413D01*
X2178050Y1525270D01*
X2205736Y1515871D01*
X2251709Y1515871D01*
X2279650Y1525270D01*
X2297938Y1534413D01*
X2316479Y1552955D01*
X2325624Y1571244D01*
X2325624Y1608328D01*
X2325624Y1380997D02*
G01*
X2325624Y1399539D01*
X2316479Y1418081D01*
X2288793Y1427226D01*
X2131822Y1427226D01*
X2261108Y1454912D02*
G01*
X2261108Y1390395D01*
X2325624Y1246123D02*
G01*
X2325624Y1264665D01*
X2316479Y1283207D01*
X2288793Y1292352D01*
X2131822Y1292352D01*
X2261108Y1320037D02*
G01*
X2261108Y1255521D01*
D22*
X2691384Y4268470D02*
G01*
X2774441Y4268470D01*
X2790190Y4263136D01*
X2795270Y4258055D01*
X2800350Y4247642D01*
X2800350Y4237228D01*
X2795270Y4226813D01*
X2790190Y4221479D01*
X2774441Y4216400D01*
X2764027Y4216400D01*
X2691384Y4354576D02*
G01*
X2764027Y4302760D01*
X2764027Y4380484D01*
X2691384Y4354576D02*
G01*
X2800350Y4354576D01*
X2221484Y4268470D02*
G01*
X2304541Y4268470D01*
X2320290Y4263136D01*
X2325370Y4258055D01*
X2330450Y4247642D01*
X2330450Y4237228D01*
X2325370Y4226813D01*
X2320290Y4221479D01*
X2304541Y4216400D01*
X2294127Y4216400D01*
X2221484Y4364989D02*
G01*
X2221484Y4312920D01*
X2268220Y4307839D01*
X2263140Y4312920D01*
X2257806Y4328668D01*
X2257806Y4344162D01*
X2263140Y4359910D01*
X2273300Y4370070D01*
X2289047Y4375404D01*
X2299461Y4375404D01*
X2314956Y4370070D01*
X2325370Y4359910D01*
X2330450Y4344162D01*
X2330450Y4328668D01*
X2325370Y4312920D01*
X2320290Y4307839D01*
X2309875Y4302760D01*
X3671315Y1979929D02*
G01*
X3588258Y1979929D01*
X3572509Y1985263D01*
X3567429Y1990344D01*
X3562350Y2000757D01*
X3562350Y2011171D01*
X3567429Y2021586D01*
X3572509Y2026920D01*
X3588258Y2032000D01*
X3598672Y2032000D01*
X3645408Y1940560D02*
G01*
X3650488Y1940560D01*
X3660902Y1935479D01*
X3666236Y1930145D01*
X3671315Y1919731D01*
X3671315Y1898904D01*
X3666236Y1888489D01*
X3660902Y1883410D01*
X3650488Y1878329D01*
X3640074Y1878329D01*
X3629659Y1883410D01*
X3614165Y1893823D01*
X3562350Y1945639D01*
X3562350Y1872995D01*
X5599684Y2363470D02*
G01*
X5682741Y2363470D01*
X5698490Y2358136D01*
X5703570Y2353055D01*
X5708650Y2342642D01*
X5708650Y2332228D01*
X5703570Y2321813D01*
X5698490Y2316479D01*
X5682741Y2311400D01*
X5672327Y2311400D01*
X5615177Y2459989D02*
G01*
X5604763Y2454910D01*
X5599684Y2439162D01*
X5599684Y2428747D01*
X5604763Y2413254D01*
X5620511Y2402839D01*
X5646420Y2397760D01*
X5672327Y2397760D01*
X5693156Y2402839D01*
X5703570Y2413254D01*
X5708650Y2428747D01*
X5708650Y2434081D01*
X5703570Y2449576D01*
X5693156Y2459989D01*
X5677661Y2465070D01*
X5672327Y2465070D01*
X5656834Y2459989D01*
X5646420Y2449576D01*
X5641340Y2434081D01*
X5641340Y2428747D01*
X5646420Y2413254D01*
X5656834Y2402839D01*
X5672327Y2397760D01*
D10*
X3646601Y4395190D02*
G01*
X5446598Y4395190D01*
X5446598Y75184D01*
X3646601Y75184D01*
X3646601Y4395190D01*
D20*
X6134100Y3390900D02*
G01*
X6134100Y3200400D01*
X6388100Y3200400D01*
X6388100Y3962400D01*
X6134100Y3962400D01*
D21*
X6134100Y3962400D02*
G01*
X6134100Y3390900D01*
D10*
X2024903Y5057599D02*
G01*
X2024903Y4797600D01*
X4419600Y4940300D02*
G01*
X4445000Y4940300D01*
X3911600Y4940300D02*
G01*
X3886200Y4940300D01*
X4419600Y4940300D02*
G01*
X4419600Y4864100D01*
X4419600Y5016500D02*
G01*
X4419600Y4940300D01*
X3911600Y5016500D02*
G01*
X4419600Y5016500D01*
X3911600Y4940300D02*
G01*
X3911600Y5016500D01*
X3911600Y4864100D02*
G01*
X3911600Y4940300D01*
X4419600Y4864100D02*
G01*
X3911600Y4864100D01*
X2184400Y4140200D02*
G01*
X2184400Y4165600D01*
X2184400Y3632200D02*
G01*
X2184400Y3606800D01*
X2184400Y4140200D02*
G01*
X2260600Y4140200D01*
X2108200Y4140200D02*
G01*
X2184400Y4140200D01*
X2108200Y3632200D02*
G01*
X2108200Y4140200D01*
X2184400Y3632200D02*
G01*
X2108200Y3632200D01*
X2260600Y3632200D02*
G01*
X2184400Y3632200D01*
X2260600Y4140200D02*
G01*
X2260600Y3632200D01*
X2597099Y3126511D02*
G01*
X2597099Y1826513D01*
X1797100Y1826513D01*
X1797100Y3126511D01*
X2597099Y3126511D01*
D20*
X2832100Y4051300D02*
G01*
X2832100Y3860800D01*
X3086100Y3860800D01*
X3086100Y4622800D01*
X2832100Y4622800D01*
D21*
X2832100Y4622800D02*
G01*
X2832100Y4051300D01*
D20*
X2362200Y4051300D02*
G01*
X2362200Y3860800D01*
X2616200Y3860800D01*
X2616200Y4622800D01*
X2362200Y4622800D01*
D21*
X2362200Y4622800D02*
G01*
X2362200Y4051300D01*
D20*
X3530600Y3086100D02*
G01*
X3530600Y3276600D01*
X3276600Y3276600D01*
X3276600Y736600D01*
X3530600Y736600D01*
D21*
X3530600Y736600D02*
G01*
X3530600Y3086100D01*
D20*
X5740400Y1257300D02*
G01*
X5740400Y1066800D01*
X5994400Y1066800D01*
X5994400Y3606800D01*
X5740400Y3606800D01*
D21*
X5740400Y3606800D02*
G01*
X5740400Y1257300D01*
D10*
G75*
G01*
X2027733Y4789424D02*
G03*
X2027733Y5065776I220244J138176D01*
G75*
G01
X3975100Y4152900D02*
G03X3975100Y4152900I-63500J0D01*
M02*
